<svg xmlns="http://www.w3.org/2000/svg" width="66.794" height="99.819" viewBox="0 0 66.794 99.819">
  <g id="Groupe_2812" data-name="Groupe 2812" transform="translate(-16.182 0.024)">
    <g id="Groupe_2810" data-name="Groupe 2810">
      <path id="Tracé_1341" data-name="Tracé 1341" d="M81.75,99c-2.356-.54-4.7-1.122-7.07-1.613a122.649,122.649,0,0,0-21.552-2.72,111.233,111.233,0,0,0-14.237.918,60.192,60.192,0,0,1-8.807.05c-2.253-.105-2.771-1-2.337-3.264A12.642,12.642,0,0,0,27.7,86.95c-.833-3.429-3.1-5.8-5.782-7.865-.709-.544-1.46-1.034-2.178-1.568-2.416-1.8-3.343-4.051-2.389-6.89,1.582-4.709,3.568-9.258,7.173-12.843a14.591,14.591,0,0,1,9.854-4.336,2.913,2.913,0,0,1,2.707,1.3A11.816,11.816,0,0,0,38.965,56.9a1.716,1.716,0,0,0,2.692-.228A7.33,7.33,0,0,0,43.009,54.5c2.379-6.531,6-12.4,9.6-18.285A72.019,72.019,0,0,0,60.06,21.032c.639-1.962,2.162-3.185,3.774-4.324a38.75,38.75,0,0,0,4.145-3.057c1.548-1.44,1.478-3.078.048-4.65A8.7,8.7,0,0,0,66.6,7.732a4.79,4.79,0,0,1-1.96-3.259A35.654,35.654,0,0,0,63.523.77h5.372a14.035,14.035,0,0,1,2.651,5.682c.554,2.75.96,5.531,1.366,8.308.5,3.454,1.044,6.9,2.862,9.958.722,1.215,1.6,2.334,2.458,3.563-.227.016-.41.043-.591.04-3.417-.041-6.834-.065-10.25-.142A2.379,2.379,0,0,0,64.8,29.54a2.428,2.428,0,0,0,.637,3.043,37.31,37.31,0,0,0,3.65,3.241,23.9,23.9,0,0,1,5.436,5.753c2.786,4.039,2.757,7.265-.062,11.306-1.15,1.65-2.378,3.253-3.424,4.966-1.686,2.757-2.724,5.742-2.114,9.023a53.5,53.5,0,0,0,1.454,5.35c1.619,5.469,4.182,10.333,8.8,13.929a7.19,7.19,0,0,1,2.911,5.118c.2,2.563.046,5.153.045,7.731Z" fill="none" stroke="#000" stroke-linejoin="round" stroke-width="1.589"/>
    </g>
    <g id="Groupe_2811" data-name="Groupe 2811">
      <path id="Tracé_1342" data-name="Tracé 1342" d="M59.43,77a11.022,11.022,0,1,1,.48-4.83l-2.41-.982" fill="none" stroke="#ff038d" stroke-linecap="round" stroke-linejoin="round" stroke-width="1"/>
      <line id="Ligne_23" data-name="Ligne 23" x1="1.965" y2="1.482" transform="translate(59.91 70.688)" fill="none" stroke="#ff038d" stroke-linecap="round" stroke-linejoin="round" stroke-width="1"/>
    </g>
  </g>
</svg>
