<svg xmlns="http://www.w3.org/2000/svg" width="86.922" height="62.521" viewBox="0 0 86.922 62.521">
  <g id="Groupe_2801" data-name="Groupe 2801" transform="translate(-246.539 -18.74)">
    <rect id="Rectangle_1263" data-name="Rectangle 1263" width="85.333" height="60.932" transform="translate(247.334 19.534)" fill="none" stroke="#000" stroke-linejoin="round" stroke-width="1.589"/>
    <g id="Groupe_2799" data-name="Groupe 2799">
      <path id="Tracé_1332" data-name="Tracé 1332" d="M327.634,30.182c-3.544-.2-6.139-2.5-6.461-5.73-.1-.931-.209-1.106-1.35-1.106H260.186c-1.15,0-1.263.166-1.359,1.1-.322,3.239-2.917,5.538-6.452,5.738-1.045.052-1.115.409-1.115.949q-.012,18.859-.008,37.729c.008.619.165.906,1.106.958,3.5.2,6.034,2.369,6.452,5.538.174,1.271.174,1.3,1.715,1.3h59.107c1.41,0,1.428-.157,1.541-1.193.357-3.179,2.952-5.451,6.452-5.643,1.045-.052,1.115-.409,1.115-.949q.012-18.861.008-37.729C328.74,30.521,328.583,30.234,327.634,30.182Zm-.653,38.173-.523.1c-3.8.8-6.069,2.847-6.957,6.243l-.122.5H260.621l-.122-.487c-.9-3.414-3.169-5.451-6.966-6.252l-.522-.113V31.627l.531-.1a9.284,9.284,0,0,0,4.536-2.125,7.634,7.634,0,0,0,2.386-4.084l.122-.5H319.37l.131.488c.888,3.4,3.169,5.433,6.957,6.225l.523.1Z"/>
    </g>
    <g id="Groupe_2800" data-name="Groupe 2800">
      <path id="Tracé_1333" data-name="Tracé 1333" d="M271.141,37.772,272.3,40.79a.319.319,0,0,0,.28.2l3.23.174a.319.319,0,0,1,.184.566l-2.511,2.04a.319.319,0,0,0-.107.329l.832,3.126a.318.318,0,0,1-.481.349l-2.715-1.757a.321.321,0,0,0-.347,0l-2.715,1.757a.318.318,0,0,1-.481-.349l.832-3.126a.32.32,0,0,0-.107-.329l-2.51-2.04a.319.319,0,0,1,.183-.566l3.23-.174a.319.319,0,0,0,.28-.2l1.164-3.018A.319.319,0,0,1,271.141,37.772Z" fill="none" stroke="#ff038d" stroke-linecap="round" stroke-linejoin="round" stroke-width="1"/>
      <path id="Tracé_1334" data-name="Tracé 1334" d="M290.3,37.119l1.163,3.018a.319.319,0,0,0,.281.2l3.229.174a.319.319,0,0,1,.184.566l-2.51,2.04a.316.316,0,0,0-.107.329l.832,3.125a.319.319,0,0,1-.482.35l-2.715-1.757a.319.319,0,0,0-.346,0l-2.715,1.757a.319.319,0,0,1-.482-.35l.832-3.125a.316.316,0,0,0-.107-.329l-2.51-2.04a.319.319,0,0,1,.184-.566l3.229-.174a.319.319,0,0,0,.281-.2l1.163-3.018A.32.32,0,0,1,290.3,37.119Z" fill="none" stroke="#ff038d" stroke-linecap="round" stroke-linejoin="round" stroke-width="1"/>
      <path id="Tracé_1335" data-name="Tracé 1335" d="M309.454,37.119l1.164,3.018a.319.319,0,0,0,.28.2l3.23.174a.319.319,0,0,1,.183.566l-2.51,2.04a.32.32,0,0,0-.107.329l.832,3.125a.319.319,0,0,1-.481.35l-2.715-1.757a.321.321,0,0,0-.347,0l-2.715,1.757a.319.319,0,0,1-.481-.35l.832-3.125a.319.319,0,0,0-.107-.329L304,41.08a.319.319,0,0,1,.184-.566l3.23-.174a.319.319,0,0,0,.28-.2l1.164-3.018A.319.319,0,0,1,309.454,37.119Z" fill="none" stroke="#ff038d" stroke-linecap="round" stroke-linejoin="round" stroke-width="1"/>
      <path id="Tracé_1336" data-name="Tracé 1336" d="M271.141,53.228l1.164,3.017a.318.318,0,0,0,.28.2l3.23.174a.319.319,0,0,1,.184.566l-2.511,2.039a.322.322,0,0,0-.107.33l.832,3.125a.319.319,0,0,1-.481.35l-2.715-1.757a.317.317,0,0,0-.347,0l-2.715,1.757a.319.319,0,0,1-.481-.35l.832-3.125a.322.322,0,0,0-.107-.33l-2.51-2.039a.319.319,0,0,1,.183-.566l3.23-.174a.318.318,0,0,0,.28-.2l1.164-3.017A.319.319,0,0,1,271.141,53.228Z" fill="none" stroke="#ff038d" stroke-linecap="round" stroke-linejoin="round" stroke-width="1"/>
      <path id="Tracé_1337" data-name="Tracé 1337" d="M290.3,52.575l1.163,3.017a.32.32,0,0,0,.281.2l3.229.174a.319.319,0,0,1,.184.566l-2.51,2.039a.317.317,0,0,0-.107.33l.832,3.125a.319.319,0,0,1-.482.35l-2.715-1.757a.315.315,0,0,0-.346,0l-2.715,1.757a.319.319,0,0,1-.482-.35l.832-3.125a.317.317,0,0,0-.107-.33l-2.51-2.039a.319.319,0,0,1,.184-.566l3.229-.174a.32.32,0,0,0,.281-.2l1.163-3.017A.319.319,0,0,1,290.3,52.575Z" fill="none" stroke="#ff038d" stroke-linecap="round" stroke-linejoin="round" stroke-width="1"/>
      <path id="Tracé_1338" data-name="Tracé 1338" d="M309.454,52.575l1.164,3.017a.32.32,0,0,0,.28.2l3.23.174a.319.319,0,0,1,.183.566l-2.51,2.039a.321.321,0,0,0-.107.33l.832,3.125a.319.319,0,0,1-.481.35l-2.715-1.757a.317.317,0,0,0-.347,0l-2.715,1.757a.319.319,0,0,1-.481-.35l.832-3.125a.321.321,0,0,0-.107-.33L304,56.536a.319.319,0,0,1,.184-.566l3.23-.174a.32.32,0,0,0,.28-.2l1.164-3.017A.319.319,0,0,1,309.454,52.575Z" fill="none" stroke="#ff038d" stroke-linecap="round" stroke-linejoin="round" stroke-width="1"/>
    </g>
  </g>
</svg>
