<svg xmlns="http://www.w3.org/2000/svg" width="22.518" height="26.315" viewBox="0 0 22.518 26.315">
  <g id="Groupe_2412" data-name="Groupe 2412" transform="translate(0 0)">
    <path id="Tracé_1105" data-name="Tracé 1105" d="M840.48,331.84q-.323.03-.648.032a7.025,7.025,0,0,1-5.877-3.176v10.817a7.995,7.995,0,1,1-8-7.995h0c.167,0,.33.015.494.025v3.941a4,4,0,0,0-.494-.05,4.08,4.08,0,1,0,0,8.16,4.18,4.18,0,0,0,4.245-4.03l.039-18.371h3.769a7.02,7.02,0,0,0,6.47,6.268v4.379" transform="translate(-817.965 -321.193)" fill="#fff"/>
  </g>
</svg>
