<svg xmlns="http://www.w3.org/2000/svg" width="88.128" height="65.285" viewBox="0 0 88.128 65.285">
  <g id="Groupe_2809" data-name="Groupe 2809" transform="translate(-130.706 -21.715)">
    <g id="Groupe_2806" data-name="Groupe 2806">
      <rect id="Rectangle_1264" data-name="Rectangle 1264" width="77" height="54.982" transform="translate(131.5 22.509)" fill="none" stroke="#000" stroke-linejoin="round" stroke-width="1.589"/>
      <g id="Groupe_2805" data-name="Groupe 2805">
        <g id="Groupe_2804" data-name="Groupe 2804">
          <g id="Groupe_2802" data-name="Groupe 2802">
            <path id="Tracé_1339" data-name="Tracé 1339" d="M200.95,55.25a.622.622,0,0,1-.83.13,3.2,3.2,0,0,1-.6-.47l-14.29-13.1c-.12-.1-.25-.21-.38-.32l-.63-.53L171.04,55.39l6.51,6.51a3.4,3.4,0,0,1,.41.44.741.741,0,0,1-.03,1.02.732.732,0,0,1-.98.03,3.973,3.973,0,0,1-.48-.44l-.92-.92q-5.97-5.97-11.93-11.94a2.64,2.64,0,0,1-.32-.41c-.06-.09-.13-.18-.19-.27l-.39-.52-9.83,8.65L140.41,68.52a3.479,3.479,0,0,1-.56.41.623.623,0,0,1-.83-.18.607.607,0,0,1-.1-.82,2.5,2.5,0,0,1,.5-.53q11.115-9.81,22.25-19.6c.42-.37.67-.55.92-.55s.51.2.93.62l5.42,5.42c.12.12.25.24.4.37l.65.62.64-.68.47-.5,12.08-13.24c.46-.5.78-.74,1-.75s.54.19,1.02.63q7.7,7.05,15.36,14.09a2.9,2.9,0,0,1,.51.55A.625.625,0,0,1,200.95,55.25Z"/>
          </g>
          <g id="Groupe_2803" data-name="Groupe 2803">
            <path id="Tracé_1340" data-name="Tracé 1340" d="M151.8,30.98h-.06a6.925,6.925,0,0,0,0,13.85h.01a6.933,6.933,0,0,0,6.91-6.89v-.02A7.033,7.033,0,0,0,151.8,30.98Zm3.79,10.73a5.441,5.441,0,0,1-3.82,1.64h-.06a5.31,5.31,0,0,1-3.74-1.55,5.416,5.416,0,0,1-1.64-3.85v-.02a5.429,5.429,0,0,1,5.38-5.42h.03a5.457,5.457,0,0,1,5.43,5.38A5.373,5.373,0,0,1,155.59,41.71Z"/>
          </g>
        </g>
      </g>
    </g>
    <g id="Groupe_2807" data-name="Groupe 2807">
      <line id="Ligne_1" data-name="Ligne 1" y1="6.333" transform="translate(132.417 80.167)" fill="none" stroke="#ff038d" stroke-linecap="round" stroke-linejoin="round" stroke-width="1"/>
      <line id="Ligne_2" data-name="Ligne 2" y1="6.333" transform="translate(138.583 80.167)" fill="none" stroke="#ff038d" stroke-linecap="round" stroke-linejoin="round" stroke-width="1"/>
      <line id="Ligne_3" data-name="Ligne 3" y1="6.333" transform="translate(144.75 80.167)" fill="none" stroke="#ff038d" stroke-linecap="round" stroke-linejoin="round" stroke-width="1"/>
      <line id="Ligne_4" data-name="Ligne 4" y1="6.333" transform="translate(150.917 80.167)" fill="none" stroke="#ff038d" stroke-linecap="round" stroke-linejoin="round" stroke-width="1"/>
      <line id="Ligne_5" data-name="Ligne 5" y1="6.333" transform="translate(157.083 80.167)" fill="none" stroke="#ff038d" stroke-linecap="round" stroke-linejoin="round" stroke-width="1"/>
      <line id="Ligne_6" data-name="Ligne 6" y1="6.333" transform="translate(163.25 80.167)" fill="none" stroke="#ff038d" stroke-linecap="round" stroke-linejoin="round" stroke-width="1"/>
      <line id="Ligne_7" data-name="Ligne 7" y1="6.333" transform="translate(169.417 80.167)" fill="none" stroke="#ff038d" stroke-linecap="round" stroke-linejoin="round" stroke-width="1"/>
      <line id="Ligne_8" data-name="Ligne 8" y1="6.333" transform="translate(175.583 80.167)" fill="none" stroke="#ff038d" stroke-linecap="round" stroke-linejoin="round" stroke-width="1"/>
      <line id="Ligne_9" data-name="Ligne 9" y1="6.333" transform="translate(181.75 80.167)" fill="none" stroke="#ff038d" stroke-linecap="round" stroke-linejoin="round" stroke-width="1"/>
      <line id="Ligne_10" data-name="Ligne 10" y1="6.333" transform="translate(187.917 80.167)" fill="none" stroke="#ff038d" stroke-linecap="round" stroke-linejoin="round" stroke-width="1"/>
      <line id="Ligne_11" data-name="Ligne 11" y1="6.333" transform="translate(194.083 80.167)" fill="none" stroke="#ff038d" stroke-linecap="round" stroke-linejoin="round" stroke-width="1"/>
      <line id="Ligne_12" data-name="Ligne 12" y1="6.333" transform="translate(200.25 80.167)" fill="none" stroke="#ff038d" stroke-linecap="round" stroke-linejoin="round" stroke-width="1"/>
      <line id="Ligne_13" data-name="Ligne 13" y1="6.333" transform="translate(206.417 80.167)" fill="none" stroke="#ff038d" stroke-linecap="round" stroke-linejoin="round" stroke-width="1"/>
    </g>
    <g id="Groupe_2808" data-name="Groupe 2808">
      <line id="Ligne_14" data-name="Ligne 14" x2="6.333" transform="translate(212 22.333)" fill="none" stroke="#ff038d" stroke-linecap="round" stroke-linejoin="round" stroke-width="1"/>
      <line id="Ligne_15" data-name="Ligne 15" x2="6.333" transform="translate(212 28.771)" fill="none" stroke="#ff038d" stroke-linecap="round" stroke-linejoin="round" stroke-width="1"/>
      <line id="Ligne_16" data-name="Ligne 16" x2="6.333" transform="translate(212 35.208)" fill="none" stroke="#ff038d" stroke-linecap="round" stroke-linejoin="round" stroke-width="1"/>
      <line id="Ligne_17" data-name="Ligne 17" x2="6.333" transform="translate(212 41.646)" fill="none" stroke="#ff038d" stroke-linecap="round" stroke-linejoin="round" stroke-width="1"/>
      <line id="Ligne_18" data-name="Ligne 18" x2="6.333" transform="translate(212 48.083)" fill="none" stroke="#ff038d" stroke-linecap="round" stroke-linejoin="round" stroke-width="1"/>
      <line id="Ligne_19" data-name="Ligne 19" x2="6.333" transform="translate(212 54.521)" fill="none" stroke="#ff038d" stroke-linecap="round" stroke-linejoin="round" stroke-width="1"/>
      <line id="Ligne_20" data-name="Ligne 20" x2="6.333" transform="translate(212 60.958)" fill="none" stroke="#ff038d" stroke-linecap="round" stroke-linejoin="round" stroke-width="1"/>
      <line id="Ligne_21" data-name="Ligne 21" x2="6.333" transform="translate(212 67.396)" fill="none" stroke="#ff038d" stroke-linecap="round" stroke-linejoin="round" stroke-width="1"/>
      <line id="Ligne_22" data-name="Ligne 22" x2="6.333" transform="translate(212 73.833)" fill="none" stroke="#ff038d" stroke-linecap="round" stroke-linejoin="round" stroke-width="1"/>
    </g>
  </g>
</svg>
