<svg xmlns="http://www.w3.org/2000/svg" width="24.648" height="24.65" viewBox="0 0 24.648 24.65">
  <g id="Groupe_2411" data-name="Groupe 2411" transform="translate(0 0)">
    <g id="Groupe_2410" data-name="Groupe 2410" transform="translate(0)">
      <g id="Groupe_2409" data-name="Groupe 2409">
        <path id="Tracé_1102" data-name="Tracé 1102" d="M833.446,161.753a1.445,1.445,0,1,0,1.445,1.445A1.445,1.445,0,0,0,833.446,161.753Z" transform="translate(-814.595 -157.351)" fill="#fff"/>
        <path id="Tracé_1103" data-name="Tracé 1103" d="M828.772,163.312a6.071,6.071,0,1,0,6.071,6.071A6.078,6.078,0,0,0,828.772,163.312Zm0,9.959a3.888,3.888,0,1,1,3.888-3.888A3.893,3.893,0,0,1,828.772,173.271Z" transform="translate(-816.347 -157.058)" fill="#fff"/>
        <path id="Tracé_1104" data-name="Tracé 1104" d="M834.6,182.7h-9.842a7.412,7.412,0,0,1-7.4-7.4v-9.841a7.412,7.412,0,0,1,7.4-7.4H834.6a7.412,7.412,0,0,1,7.4,7.4v9.841A7.412,7.412,0,0,1,834.6,182.7Zm-9.842-22.33a5.091,5.091,0,0,0-5.085,5.085v9.841a5.092,5.092,0,0,0,5.085,5.086H834.6a5.092,5.092,0,0,0,5.085-5.086v-9.841a5.091,5.091,0,0,0-5.085-5.085Z" transform="translate(-817.354 -158.049)" fill="#fff"/>
      </g>
    </g>
  </g>
</svg>
