<svg xmlns="http://www.w3.org/2000/svg" width="184.022" height="95.092" viewBox="0 0 184.022 95.092">
  <defs>
    <style>
      .cls-1 {
        fill: #4cb0e9;
      }

      .cls-2 {
        fill: #e9368d;
      }

      .cls-3 {
        fill: #ffba08;
      }

      .cls-4 {
        fill: #333;
      }
    </style>
  </defs>
  <g id="Groupe_2861" data-name="Groupe 2861" transform="translate(-299.817 -417.19)">
    <g id="Groupe_2858" data-name="Groupe 2858" transform="translate(299.817 417.19)">
      <path id="Tracé_1360" data-name="Tracé 1360" class="cls-1" d="M340.07,436.409c-.99,2.185-2.733,3.964-4.575,4.054-1.7.085-2.386-1.663-2.493-4,2.288-.829,6.961-1.82,7.17-6.649.232-5.351-9.819-1.4-10.649,8.678-3.094,4.838-4.263,2.181-2.653-1.873,1.3-3.26,3.759-7.523,1.663-8-4.571-1.039-7.478,5.869-8.517,7.844,1.5-6.8,3.634-13.039,3.634-13.039h.986l.419-1.976h-.834l1.249-4.259-6.078,1.4-.054,1.458,1.4-.053-.156,1.712s-17.2,2.547-20.677,5.146a19.064,19.064,0,0,0,0,3.844c0-.053,9.453-4.414,10.6-4.366-.625,3.224-5.351,18.756-7.224,22.6a20.739,20.739,0,0,1,5.248-.986s6.181-21.458,6.493-22.912a32.356,32.356,0,0,1,4.883-1.039c-.517,3.015-5.694,19.362-5.819,21.3,1.819-.468,2.89-.415,3.888-1.039-.04-2.288,5.672-12.575,7.126-12.731,1.115-.116-4.776,10.546-1.454,11.9s5.3-2.181,6.131-3.219c1.142,4.57,8.723,4.187,11.429-3.483.312-.883-.6-1.5-1.142-.312m-4.156-6.439c.932.468,1.3,3.585-2.858,5.195,0-3.17,2.132-5.561,2.858-5.195" transform="translate(-299.817 -417.19)"/>
      <path id="Tracé_1361" data-name="Tracé 1361" class="cls-1" d="M318.628,484.6s-.519,3.689-.623,4.52c4.987-2.234,12.6-6.209,25.2-7.481-.026-1.351,0-2.234,0-2.234a90.257,90.257,0,0,0-24.574,5.2" transform="translate(-309.652 -450.833)"/>
    </g>
    <g id="Groupe_2859" data-name="Groupe 2859" transform="translate(436.079 464.523)">
      <path id="Tracé_1362" data-name="Tracé 1362" class="cls-1" d="M601.8,594.438h-5.276v13.691h13.69v-5.276H601.8Z" transform="translate(-596.521 -560.369)"/>
      <path id="Tracé_1363" data-name="Tracé 1363" class="cls-1" d="M670.7,520.255v5.276h8.416v8.415h5.276V520.255Z" transform="translate(-636.635 -520.255)"/>
      <rect id="Rectangle_1316" data-name="Rectangle 1316" class="cls-2" width="5.97" height="8.799" transform="translate(20.893 12.08)"/>
      <rect id="Rectangle_1317" data-name="Rectangle 1317" class="cls-1" width="8.799" height="5.97" transform="translate(12.131 20.88)"/>
      <rect id="Rectangle_1318" data-name="Rectangle 1318" class="cls-3" width="8.799" height="5.97" transform="translate(26.884 20.88)"/>
      <rect id="Rectangle_1319" data-name="Rectangle 1319" class="cls-4" width="5.97" height="8.799" transform="translate(20.893 26.871)"/>
    </g>
    <g id="Groupe_2860" data-name="Groupe 2860" transform="translate(299.817 464.65)">
      <path id="Tracé_1365" data-name="Tracé 1365" class="cls-1" d="M311.121,520.536h-11.3V567.67h8.65V550.516h2.654c3.809,0,6.7-1.046,8.6-3.108,1.882-2.045,2.837-5.043,2.837-8.914v-5.936c0-3.869-.955-6.868-2.837-8.914C317.821,521.582,314.929,520.536,311.121,520.536Zm-2.654,8h2.654a2.813,2.813,0,0,1,2.087.7c.318.318.7,1.075.7,2.871v6.848c0,1.8-.379,2.552-.7,2.87a2.81,2.81,0,0,1-2.088.7h-2.654Z" transform="translate(-299.817 -520.535)"/>
      <rect id="Rectangle_1320" data-name="Rectangle 1320" class="cls-1" width="8.65" height="47.135" transform="translate(60.726 0.001)"/>
      <path id="Tracé_1366" data-name="Tracé 1366" class="cls-1" d="M388.863,562.412l-.01-5.964h0v-2.1a17.086,17.086,0,0,0-1.067-6.372,6.929,6.929,0,0,0-2.881-3.393c2.576-1.785,3.885-4.878,3.885-9.214v-3.59c0-3.7-.915-6.53-2.719-8.4s-4.72-2.837-8.654-2.837H365.846v47.135H374.5V549.081h1.746a3.8,3.8,0,0,1,3.024,1.043c.62.728.935,2.085.935,4.022v7.174c0,.6,0,1.126.015,1.578v.084l.01,4.735h8.649v-.05Zm-8.728-25.421c0,1.6-.3,2.694-.905,3.24a3.789,3.789,0,0,1-2.665.851H374.5V528.533h2.724a2.622,2.622,0,0,1,2.193.826,5.192,5.192,0,0,1,.723,3.132Z" transform="translate(-335.522 -520.533)"/>
      <path id="Tracé_1367" data-name="Tracé 1367" class="cls-1" d="M483.647,543.037l-6.068-22.5h-10.3V567.67h7.933V539.42l7.634,28.251h8.673V520.536h-7.867Z" transform="translate(-390.37 -520.535)"/>
      <path id="Tracé_1368" data-name="Tracé 1368" class="cls-1" d="M536.186,520.536v8h7.5V567.67h8.65V528.534h7.5v-8Z" transform="translate(-427.633 -520.535)"/>
    </g>
  </g>
</svg>
