<svg xmlns="http://www.w3.org/2000/svg" width="247.545" height="127.917" viewBox="0 0 247.545 127.917">
  <g id="Groupe_2894" data-name="Groupe 2894" transform="translate(-299.817 -417.19)">
    <g id="Groupe_2858" data-name="Groupe 2858" transform="translate(299.817 417.19)">
      <path id="Tracé_1360" data-name="Tracé 1360" d="M353.965,443.044c-1.332,2.939-3.677,5.333-6.154,5.453-2.286.114-3.209-2.238-3.353-5.381,3.077-1.116,9.364-2.448,9.646-8.944.312-7.2-13.209-1.89-14.325,11.673-4.163,6.508-5.734,2.933-3.569-2.519,1.745-4.385,5.057-10.12,2.238-10.762-6.149-1.4-10.06,7.895-11.457,10.552,2.021-9.154,4.889-17.539,4.889-17.539H333.2l.564-2.658h-1.122l1.68-5.729-8.176,1.884-.072,1.961,1.89-.072-.21,2.3s-23.137,3.426-27.815,6.922a25.645,25.645,0,0,0,0,5.171c0-.072,12.716-5.938,14.258-5.873-.84,4.337-7.2,25.23-9.718,30.4,5.1-1.4,7.06-1.326,7.06-1.326s8.314-28.865,8.734-30.821c2.519-.558,5.033-1.4,6.568-1.4-.7,4.055-7.66,26.046-7.828,28.655,2.447-.63,3.887-.558,5.231-1.4-.054-3.077,7.63-16.916,9.585-17.126,1.5-.156-6.424,14.187-1.956,16s7.127-2.933,8.248-4.331c1.536,6.148,11.734,5.632,15.375-4.685.419-1.187-.81-2.021-1.536-.42m-5.591-8.661c1.254.629,1.746,4.822-3.845,6.988,0-4.265,2.868-7.48,3.845-6.988" transform="translate(-299.817 -417.19)" fill="#8d8a8a"/>
      <path id="Tracé_1361" data-name="Tracé 1361" d="M318.843,486.395s-.7,4.962-.838,6.08c6.709-3.006,16.947-8.352,33.895-10.064-.035-1.817,0-3.006,0-3.006s-17.052.839-33.056,6.989" transform="translate(-306.769 -440.97)" fill="#8d8a8a"/>
    </g>
    <g id="Groupe_2859" data-name="Groupe 2859" transform="translate(483.116 480.862)">
      <path id="Tracé_1362" data-name="Tracé 1362" d="M603.618,594.438h-7.1v18.417h18.416v-7.1H603.618Z" transform="translate(-596.521 -548.609)" fill="#8d8a8a"/>
      <path id="Tracé_1363" data-name="Tracé 1363" d="M670.7,520.255v7.1h11.321v11.32h7.1V520.255Z" transform="translate(-624.875 -520.255)" fill="#8d8a8a"/>
      <rect id="Rectangle_1316" data-name="Rectangle 1316" width="8.031" height="11.837" transform="translate(28.105 16.249)" fill="#8d8a8a"/>
      <rect id="Rectangle_1317" data-name="Rectangle 1317" width="11.837" height="8.031" transform="translate(16.318 28.088)" fill="#8d8a8a"/>
      <rect id="Rectangle_1318" data-name="Rectangle 1318" width="11.837" height="8.031" transform="translate(36.164 28.088)" fill="#8d8a8a"/>
      <rect id="Rectangle_1319" data-name="Rectangle 1319" width="8.031" height="11.837" transform="translate(28.105 36.147)" fill="#8d8a8a"/>
    </g>
    <g id="Groupe_2860" data-name="Groupe 2860" transform="translate(299.817 481.034)">
      <path id="Tracé_1365" data-name="Tracé 1365" d="M315.024,520.536H299.817v63.4h11.636V560.864h3.571c5.123,0,9.015-1.407,11.566-4.181,2.532-2.75,3.816-6.784,3.816-11.991v-7.985c0-5.2-1.284-9.239-3.816-11.991C324.036,521.943,320.145,520.536,315.024,520.536Zm-3.571,10.759h3.571a3.784,3.784,0,0,1,2.808.938c.428.428.938,1.446.938,3.862v9.212c0,2.417-.51,3.434-.938,3.861a3.78,3.78,0,0,1-2.808.938h-3.571Z" transform="translate(-299.817 -520.534)" fill="#8d8a8a"/>
      <rect id="Rectangle_1320" data-name="Rectangle 1320" width="11.636" height="63.405" transform="translate(81.689 0.002)" fill="#8d8a8a"/>
      <path id="Tracé_1366" data-name="Tracé 1366" d="M396.808,576.868l-.014-8.023h-.006v-2.831a22.984,22.984,0,0,0-1.436-8.572,9.32,9.32,0,0,0-3.876-4.564c3.466-2.4,5.226-6.562,5.226-12.4v-4.829c0-4.981-1.231-8.784-3.658-11.3s-6.35-3.817-11.641-3.817H365.846v63.406h11.635v-25h2.348c1.905,0,3.274.47,4.067,1.4.833.979,1.257,2.8,1.257,5.411v9.65c0,.814.006,1.515.02,2.123v.112l.013,6.37h11.635v-.067Zm-11.74-34.2c0,2.156-.41,3.625-1.218,4.359a5.1,5.1,0,0,1-3.585,1.145h-2.784v-16.88h3.665a3.527,3.527,0,0,1,2.95,1.111,6.985,6.985,0,0,1,.972,4.213Z" transform="translate(-325.054 -520.533)" fill="#8d8a8a"/>
      <path id="Tracé_1367" data-name="Tracé 1367" d="M489.3,550.8l-8.163-30.268H467.275v63.405h10.671v-38l10.269,38h11.667V520.536H489.3Z" transform="translate(-363.822 -520.534)" fill="#8d8a8a"/>
      <path id="Tracé_1368" data-name="Tracé 1368" d="M536.186,520.536v10.759h10.091v52.646h11.636V531.295H568V520.536Z" transform="translate(-390.161 -520.534)" fill="#8d8a8a"/>
    </g>
  </g>
</svg>
