<svg id="Telegram" xmlns="http://www.w3.org/2000/svg" width="24.99" height="20.697" viewBox="0 0 24.99 20.697">
  <g id="Telegram-2" data-name="Telegram" transform="translate(0 0)">
    <path id="Shape" d="M.377,9.627c2.557-1.408,5.41-2.584,8.077-3.765C13.041,3.927,17.647,2.026,22.3.256c.905-.3,2.531-.6,2.691.745-.087,1.9-.446,3.786-.693,5.674-.625,4.151-1.348,8.287-2.053,12.425a1.957,1.957,0,0,1-3.074,1.21c-2.655-1.793-5.33-3.569-7.95-5.4-.858-.872-.062-2.125.7-2.748C14.111,10,16.429,8.172,18.5,5.906c.559-1.35-1.093-.212-1.637.136C13.871,8.1,10.951,10.293,7.8,12.106c-1.612.887-3.491.129-5.1-.366-1.445-.6-3.562-1.2-2.316-2.113Z" fill="#fff"/>
  </g>
</svg>
