<svg xmlns="http://www.w3.org/2000/svg" width="33.57" height="27.802" viewBox="0 0 33.57 27.802">
  <g id="Telegram" transform="translate(0 0)">
    <path id="Shape" d="M.507,12.932c3.434-1.892,7.268-3.471,10.85-5.057,6.162-2.6,12.349-5.153,18.6-7.531,1.216-.405,3.4-.8,3.615,1-.117,2.551-.6,5.086-.931,7.622-.84,5.576-1.811,11.133-2.758,16.69a2.629,2.629,0,0,1-4.129,1.625c-3.566-2.409-7.159-4.794-10.68-7.259-1.153-1.172-.084-2.855.946-3.691,2.937-2.894,6.052-5.354,8.835-8.4.751-1.813-1.468-.285-2.2.183-4.021,2.771-7.943,5.711-12.182,8.146-2.165,1.192-4.689.173-6.854-.492-1.941-.8-4.784-1.613-3.111-2.838Z" transform="translate(0 0)" fill="#8d8a8a"/>
  </g>
</svg>
