<svg id="Twitter" xmlns="http://www.w3.org/2000/svg" width="21.171" height="17.496" viewBox="0 0 21.171 17.496">
  <g id="Twitter-2" data-name="Twitter" transform="translate(0 0)">
    <path id="Shape" d="M10.28,4.654l.046.757-.765-.093A12.441,12.441,0,0,1,2.279,1.735l-1.01-1-.26.741a4.457,4.457,0,0,0,.948,4.571c.612.649.474.741-.581.355a1.8,1.8,0,0,0-.719-.17A5.533,5.533,0,0,0,1.208,8.3a4.94,4.94,0,0,0,2.1,1.977l.75.355-.887.015c-.857,0-.887.015-.8.34a4.624,4.624,0,0,0,2.861,2.533l.948.324-.826.494a8.613,8.613,0,0,1-4.1,1.143A4.53,4.53,0,0,0,0,15.6a11.638,11.638,0,0,0,2.952,1.359A12.921,12.921,0,0,0,12.987,15.82a13.43,13.43,0,0,0,5.094-5.992,15.929,15.929,0,0,0,1.04-4.633c0-.71.046-.8.9-1.652a10.084,10.084,0,0,0,1.071-1.189c.153-.293.138-.293-.642-.031-1.3.463-1.484.4-.841-.293A4.492,4.492,0,0,0,20.651.376c0-.046-.229.031-.49.17a8.534,8.534,0,0,1-1.346.525l-.826.263-.75-.51a6.226,6.226,0,0,0-1.3-.68,5.226,5.226,0,0,0-2.677.062A4.421,4.421,0,0,0,10.28,4.654Z" transform="translate(0 0)" fill="#fff"/>
  </g>
</svg>
