<svg xmlns="http://www.w3.org/2000/svg" width="26.117" height="26.243" viewBox="0 0 26.117 26.243">
  <g id="WhatsApp" transform="translate(0 0)">
    <path id="Page-1" d="M0,26.243v0H0L1.844,19.5a13,13,0,1,1,11.268,6.513h0a13.022,13.022,0,0,1-6.215-1.583ZM7.212,22.08h0l.395.234a10.811,10.811,0,1,0-3.651-3.558l.258.408L3.121,23.154l4.09-1.073Zm9.28-2.822a4.083,4.083,0,0,1-1.257-.191,18.634,18.634,0,0,1-1.853-.685,14.057,14.057,0,0,1-5.493-4.824l-.058-.082A6.188,6.188,0,0,1,6.5,10.115,3.582,3.582,0,0,1,7.577,7.474L7.641,7.4A1.185,1.185,0,0,1,8.508,7c.209,0,.429,0,.622.011h.1c.2,0,.414.043.629.557.087.209.213.515.346.84l0,.009c.28.681.6,1.453.652,1.563a.594.594,0,0,1,.027.569l-.045.091a1.84,1.84,0,0,1-.28.451c-.055.064-.111.133-.168.2-.11.134-.223.272-.32.368-.157.157-.334.334-.143.663a9.741,9.741,0,0,0,1.808,2.251,8.44,8.44,0,0,0,2.4,1.516c.089.039.16.069.213.1a.8.8,0,0,0,.353.1.451.451,0,0,0,.35-.186c.15-.171.8-.935,1.028-1.274a.45.45,0,0,1,.383-.246,1.075,1.075,0,0,1,.349.084c.293.107,1.849.871,2.22,1.057l.179.088a1.046,1.046,0,0,1,.444.292,2.714,2.714,0,0,1-.189,1.545A3.335,3.335,0,0,1,17.281,19.2,5.3,5.3,0,0,1,16.492,19.259Z" transform="translate(0 0)" fill="#fff"/>
  </g>
</svg>
